<svg xmlns="http://www.w3.org/2000/svg" version="1.1" xmlns:xlink="http://www.w3.org/1999/xlink" xmlns:svgjs="http://svgjs.dev/svgjs" width="2000" height="1500" viewBox="0 0 2000 1500"><rect width="2000" height="1500" fill="#ffffff"></rect><g transform="matrix(0.75,0,0,0.75,249.090909090909,424.4920987602045)"><svg viewBox="0 0 396 172" data-background-color="#ffffff" preserveAspectRatio="xMidYMid meet" height="868" width="2000" xmlns="http://www.w3.org/2000/svg" xmlns:xlink="http://www.w3.org/1999/xlink"><g id="tight-bounds" transform="matrix(1,0,0,1,0.2400000000000091,0.0020875779490268087)"><svg viewBox="0 0 395.52 171.9958243956582" height="171.9958243956582" width="395.52"><g><svg viewBox="0 0 395.52 171.9958243956582" height="171.9958243956582" width="395.52"><g><svg viewBox="0 0 395.52 171.9958243956582" height="171.9958243956582" width="395.52"><g id="textblocktransform"><svg viewBox="0 0 395.52 171.9958243956582" height="171.9958243956582" width="395.52" id="textblock"><g><svg viewBox="0 0 395.52 137.66466871425473" height="137.66466871425473" width="395.52"><rect width="395.52" height="137.66466871425473" x="0" y="0" opacity="1" fill="#1c4b82" data-fill-palette-color="tertiary"></rect><g transform="matrix(1,0,0,1,23.461705032,23.461705032)"><svg width="348.596589936" viewBox="1.9000000953674316 -35 134.63999938964844 35.04999923706055" height="90.74125865025474" data-palette-color="#ffffff"><path d="M4.55-33.95L1.9-34.25 1.95-35 8.55-35 20.5-9.65 32.25-35 38.85-35Q38.85-34.9 38.9-34.65 38.95-34.4 38.9-34.25L38.9-34.25 36.25-33.95Q35.75-33.9 35.65-33.3L35.65-33.3 35.65-0.95 39.35-0.75Q39.35-0.7 39.3 0L39.3 0 29.25 0.05 29.3-0.65 31.9-1Q32.4-1.05 32.5-1.6L32.5-1.6 32.5-33.2 21.1-8.55 20.1-6.55 18.95-6.55 6.3-33.25 6.3-1.05 12-0.75Q12-0.7 11.95 0L11.95 0 1.9 0.05 1.95-0.65 4.55-1Q5.05-1.05 5.15-1.65L5.15-1.65 5.15-33.3Q5.05-33.9 4.55-33.95L4.55-33.95ZM45.1-33.95L42.45-34.25 42.5-35 54.7-35Q61.45-35 65.52-31.08 69.6-27.15 69.6-18.3L69.6-18.3Q69.6-9.55 66.75-5.2L66.75-5.2Q64.25-1.4 58.95-0.4L58.95-0.4Q56.6 0 53.45 0L53.45 0 52.5 0 42.45 0.05 42.5-0.65 45.1-1Q45.6-1.05 45.7-1.65L45.7-1.65 45.7-33.25Q45.6-33.9 45.1-33.95L45.1-33.95ZM54.45-34.25L54.45-34.25 49.1-34.25 49.1-0.75 53.2-0.75Q55.6-0.75 57.27-1.03 58.95-1.3 60.77-2.33 62.6-3.35 63.65-5.15L63.65-5.15Q66.2-9.4 66.2-18.05L66.2-18.05Q66.2-27.05 62.65-30.8L62.65-30.8Q59.4-34.25 54.45-34.25ZM75.14-33.95L72.5-34.25 72.55-35 79.14-35 91.09-9.65 102.84-35 109.44-35Q109.44-34.9 109.5-34.65 109.55-34.4 109.5-34.25L109.5-34.25 106.84-33.95Q106.34-33.9 106.25-33.3L106.25-33.3 106.25-0.95 109.94-0.75Q109.94-0.7 109.9 0L109.9 0 99.84 0.05 99.89-0.65 102.5-1Q103-1.05 103.09-1.6L103.09-1.6 103.09-33.2 91.69-8.55 90.69-6.55 89.55-6.55 76.89-33.25 76.89-1.05 82.59-0.75Q82.59-0.7 82.55 0L82.55 0 72.5 0.05 72.55-0.65 75.14-1Q75.64-1.05 75.75-1.65L75.75-1.65 75.75-33.3Q75.64-33.9 75.14-33.95L75.14-33.95ZM115.69-33.95L113.04-34.25 113.09-35 134.49-35 134.44-34.85 135.09-27.8 134.09-27.4 133.29-34 119.69-34 119.69-17.85 131.64-17.85Q131.89-17.8 132.09-17.98 132.29-18.15 132.29-18.45L132.29-18.45 132.49-21.9 133.29-22 133.29-13.45Q133.24-13.45 132.54-13.4L132.54-13.4 132.34-16.85 119.69-16.85 119.69-1 134.64-1 135.59-9 136.54-8.75 135.79 0 123.09 0 113.04 0.05 113.09-0.65 115.69-1Q116.19-1.05 116.29-1.65L116.29-1.65 116.29-33.3Q116.19-33.9 115.69-33.95L115.69-33.95Z" opacity="1" transform="matrix(1,0,0,1,0,0)" fill="#ffffff" class="undefined-text-0" data-fill-palette-color="quaternary" id="text-0"></path></svg></g></svg></g><g transform="matrix(1,0,0,1,0,149.39552123025473)"><svg viewBox="0 0 395.52 22.60030316540347" height="22.60030316540347" width="395.52"><g transform="matrix(1,0,0,1,0,0)"><svg width="395.52" viewBox="3.049999952316284 -38.150001525878906 672.8300170898438 38.45000076293945" height="22.60030316540347" data-palette-color="#1c4b82"><path d="M5.85 0L3.05 0 7.2-36.7 10.35-36.7 20.5-3.85 30.5-36.7 33.7-36.7 37.95 0 35.15 0 31.25-33.8 31.8-33.7 21.85 0 19.15 0 9-33.65 9.6-33.75 5.85 0ZM54.95 0.3L54.95 0.3Q52.2 0.3 50.07-0.28 47.95-0.85 46.5-2.33 45.05-3.8 44.35-6.48 43.65-9.15 43.65-13.35L43.65-13.35Q43.65-17.6 44.37-20.28 45.1-22.95 46.52-24.4 47.95-25.85 50.07-26.4 52.2-26.95 54.95-26.95L54.95-26.95Q57.7-26.95 59.82-26.4 61.95-25.85 63.4-24.4 64.85-22.95 65.57-20.28 66.3-17.6 66.3-13.35L66.3-13.35Q66.3-9.15 65.57-6.45 64.85-3.75 63.42-2.3 62-0.85 59.85-0.28 57.7 0.3 54.95 0.3ZM54.95-2.15L54.95-2.15Q56.95-2.15 58.55-2.53 60.15-2.9 61.2-4.03 62.25-5.15 62.82-7.4 63.4-9.65 63.4-13.35L63.4-13.35Q63.4-17.1 62.82-19.33 62.25-21.55 61.2-22.68 60.15-23.8 58.55-24.18 56.95-24.55 54.95-24.55L54.95-24.55Q52.9-24.55 51.35-24.18 49.8-23.8 48.72-22.68 47.65-21.55 47.1-19.33 46.55-17.1 46.55-13.35L46.55-13.35Q46.55-9.65 47.1-7.4 47.65-5.15 48.72-4.03 49.8-2.9 51.35-2.53 52.9-2.15 54.95-2.15ZM82.1 0.3L82.1 0.3Q78.75 0.3 76.62-1.15 74.5-2.6 73.5-5.6 72.5-8.6 72.5-13.15L72.5-13.15Q72.5-18.1 73.52-21.15 74.55-24.2 76.75-25.58 78.95-26.95 82.6-26.95L82.6-26.95Q84.95-26.95 87.22-26.43 89.5-25.9 91.2-25.3L91.2-25.3 91.2-38.15 94.1-38.15 94.1 0 91.8 0 91.2-2.75Q90.5-2.1 88.95-1.4 87.4-0.7 85.55-0.2 83.7 0.3 82.1 0.3ZM82.8-2.15L82.8-2.15Q85.35-2.15 87.42-2.95 89.5-3.75 91.2-4.6L91.2-4.6 91.2-23.25Q89.15-23.85 87.35-24.25 85.55-24.65 83.25-24.65L83.25-24.65Q80.45-24.65 78.72-23.6 77-22.55 76.2-20.08 75.4-17.6 75.4-13.25L75.4-13.25Q75.4-9.35 76.15-6.88 76.9-4.4 78.52-3.28 80.15-2.15 82.8-2.15ZM111.94 0.3L111.94 0.3Q107.84 0.3 105.47-0.98 103.09-2.25 102.09-5.25 101.09-8.25 101.09-13.4L101.09-13.4Q101.09-18.65 102.14-21.6 103.19-24.55 105.62-25.75 108.04-26.95 112.09-26.95L112.09-26.95Q115.49-26.95 117.67-26.18 119.84-25.4 120.92-23.5 121.99-21.6 121.99-18.25L121.99-18.25Q121.99-16 121.12-14.63 120.24-13.25 118.59-12.65 116.94-12.05 114.69-12.05L114.69-12.05 103.99-12.05Q103.99-8.4 104.69-6.2 105.39-4 107.22-3 109.04-2 112.59-2L112.59-2 121.39-2 121.39-0.25Q118.99 0 116.87 0.15 114.74 0.3 111.94 0.3ZM103.94-14.1L103.94-14.1 114.49-14.1Q116.94-14.1 118.14-14.98 119.34-15.85 119.34-18.25L119.34-18.25Q119.34-20.75 118.62-22.15 117.89-23.55 116.32-24.13 114.74-24.7 112.09-24.7L112.09-24.7Q108.94-24.7 107.17-23.8 105.39-22.9 104.67-20.6 103.94-18.3 103.94-14.1ZM138.99 0.05L135.74 0.05Q133.64 0.05 132.16-0.75 130.69-1.55 129.94-3.4 129.19-5.25 129.19-8.5L129.19-8.5 129.19-38.15 132.09-38.15 132.09-8.8Q132.09-6.2 132.56-4.85 133.04-3.5 133.97-3 134.89-2.5 136.09-2.35L136.09-2.35 138.99-2 138.99 0.05ZM171.44 0L157.24 0 157.24-36.7 171.44-36.7Q174.69-36.7 176.91-35.55 179.13-34.4 180.56-32.08 181.99-29.75 182.63-26.33 183.28-22.9 183.28-18.35L183.28-18.35Q183.28-12.7 181.96-8.6 180.63-4.5 178.01-2.25 175.38 0 171.44 0L171.44 0ZM160.13-34.1L160.13-2.6 171.24-2.6Q174.44-2.6 176.44-4.58 178.44-6.55 179.41-10.1 180.38-13.65 180.38-18.35L180.38-18.35Q180.38-22.6 179.86-25.6 179.34-28.6 178.24-30.48 177.13-32.35 175.41-33.23 173.69-34.1 171.24-34.1L171.24-34.1 160.13-34.1ZM193.48 0L190.58 0 190.58-26.65 192.73-26.65 193.48-21.85Q195.38-24.05 197.71-25.5 200.03-26.95 203.08-26.95L203.08-26.95Q203.83-26.95 204.48-26.88 205.13-26.8 205.68-26.65L205.68-26.65 205.68-23.7Q205.03-23.8 204.33-23.9 203.63-24 202.83-24L202.83-24Q200.88-24 199.36-23.5 197.83-23 196.43-22.03 195.03-21.05 193.48-19.6L193.48-19.6 193.48 0ZM213.48-31.65L211.53-31.65Q210.78-31.65 210.78-32.4L210.78-32.4 210.78-35.95Q210.78-36.7 211.53-36.7L211.53-36.7 213.48-36.7Q213.83-36.7 213.98-36.5 214.13-36.3 214.13-35.95L214.13-35.95 214.13-32.4Q214.13-31.65 213.48-31.65L213.48-31.65ZM213.93 0L211.03 0 211.03-26.65 213.93-26.65 213.93 0ZM232.68 0L229.38 0 219.03-26.65 221.98-26.65 231.08-2.7 240.38-26.65 243.33-26.65 232.68 0ZM257.33 0.3L257.33 0.3Q253.23 0.3 250.85-0.98 248.48-2.25 247.48-5.25 246.48-8.25 246.48-13.4L246.48-13.4Q246.48-18.65 247.53-21.6 248.58-24.55 251-25.75 253.43-26.95 257.48-26.95L257.48-26.95Q260.88-26.95 263.05-26.18 265.23-25.4 266.3-23.5 267.38-21.6 267.38-18.25L267.38-18.25Q267.38-16 266.5-14.63 265.63-13.25 263.98-12.65 262.33-12.05 260.08-12.05L260.08-12.05 249.38-12.05Q249.38-8.4 250.08-6.2 250.78-4 252.6-3 254.43-2 257.98-2L257.98-2 266.78-2 266.78-0.25Q264.38 0 262.25 0.15 260.13 0.3 257.33 0.3ZM249.33-14.1L249.33-14.1 259.88-14.1Q262.33-14.1 263.53-14.98 264.73-15.85 264.73-18.25L264.73-18.25Q264.73-20.75 264-22.15 263.28-23.55 261.7-24.13 260.13-24.7 257.48-24.7L257.48-24.7Q254.33-24.7 252.55-23.8 250.78-22.9 250.05-20.6 249.33-18.3 249.33-14.1ZM277.47 0L274.57 0 274.57-26.65 276.72-26.65 277.47-23.65Q279.47-25 282.1-26.05 284.72-27.1 287.62-27.1L287.62-27.1Q290.42-27.1 292.25-25.88 294.07-24.65 294.97-22.63 295.87-20.6 295.87-18.3L295.87-18.3 295.87 0 292.97 0 292.97-18Q292.97-19.85 292.22-21.3 291.47-22.75 290.12-23.6 288.77-24.45 286.82-24.45L286.82-24.45Q284.92-24.45 283.4-24.13 281.87-23.8 280.45-23.15 279.02-22.5 277.47-21.65L277.47-21.65 277.47 0ZM319.32 0L316.52 0 320.67-36.7 323.82-36.7 333.97-3.85 343.97-36.7 347.17-36.7 351.42 0 348.62 0 344.72-33.8 345.27-33.7 335.32 0 332.62 0 322.47-33.65 323.07-33.75 319.32 0ZM367.97 0.3L367.97 0.3Q363.87 0.3 361.49-0.98 359.12-2.25 358.12-5.25 357.12-8.25 357.12-13.4L357.12-13.4Q357.12-18.65 358.17-21.6 359.22-24.55 361.64-25.75 364.07-26.95 368.12-26.95L368.12-26.95Q371.52-26.95 373.69-26.18 375.87-25.4 376.94-23.5 378.02-21.6 378.02-18.25L378.02-18.25Q378.02-16 377.14-14.63 376.27-13.25 374.62-12.65 372.97-12.05 370.72-12.05L370.72-12.05 360.02-12.05Q360.02-8.4 360.72-6.2 361.42-4 363.24-3 365.07-2 368.62-2L368.62-2 377.42-2 377.42-0.25Q375.02 0 372.89 0.15 370.77 0.3 367.97 0.3ZM359.97-14.1L359.97-14.1 370.52-14.1Q372.97-14.1 374.17-14.98 375.37-15.85 375.37-18.25L375.37-18.25Q375.37-20.75 374.64-22.15 373.92-23.55 372.34-24.13 370.77-24.7 368.12-24.7L368.12-24.7Q364.97-24.7 363.19-23.8 361.42-22.9 360.69-20.6 359.97-18.3 359.97-14.1ZM396.96 0L393.61 0Q391.21 0 389.59-0.85 387.96-1.7 387.16-3.55 386.36-5.4 386.36-8.35L386.36-8.35 386.51-24.2 382.26-24.2 382.26-26.1 386.51-26.65 387.06-34.1 389.26-34.1 389.26-26.65 397.36-26.65 397.36-24.2 389.26-24.2 389.26-8.35Q389.26-6.45 389.69-5.28 390.11-4.1 390.79-3.5 391.46-2.9 392.24-2.68 393.01-2.45 393.71-2.4L393.71-2.4 396.96-2.1 396.96 0ZM408.31 0.3L408.31 0.3Q405.41 0.3 403.49-1.43 401.56-3.15 401.56-6.35L401.56-6.35 401.56-8.15Q401.56-11.3 403.64-13.25 405.71-15.2 409.76-15.2L409.76-15.2 419.51-15.2 419.51-18.9Q419.51-20.7 418.89-22 418.26-23.3 416.71-24 415.16-24.7 412.26-24.7L412.26-24.7 403.91-24.7 403.91-26.45Q405.56-26.65 407.84-26.85 410.11-27.05 413.06-27.1L413.06-27.1Q416.31-27.15 418.39-26.28 420.46-25.4 421.44-23.6 422.41-21.8 422.41-19.05L422.41-19.05 422.41 0 420.21 0 419.61-3.1Q419.46-3 418.39-2.48 417.31-1.95 415.61-1.3 413.91-0.65 412.01-0.18 410.11 0.3 408.31 0.3ZM409.31-2L409.31-2Q410.31-1.95 411.64-2.23 412.96-2.5 414.31-2.88 415.66-3.25 416.84-3.63 418.01-4 418.74-4.3 419.46-4.6 419.51-4.6L419.51-4.6 419.51-13.65 410.21-13.3Q407.11-13.2 405.79-11.75 404.46-10.3 404.46-8.1L404.46-8.1 404.46-6.85Q404.46-5.05 405.21-3.98 405.96-2.9 407.09-2.45 408.21-2 409.31-2ZM439.01 0.3L439.01 0.3Q435.66 0.3 433.53-1.15 431.41-2.6 430.41-5.6 429.41-8.6 429.41-13.15L429.41-13.15Q429.41-18.1 430.43-21.15 431.46-24.2 433.66-25.58 435.86-26.95 439.51-26.95L439.51-26.95Q441.86-26.95 444.13-26.43 446.41-25.9 448.11-25.3L448.11-25.3 448.11-38.15 451.01-38.15 451.01 0 448.71 0 448.11-2.75Q447.41-2.1 445.86-1.4 444.31-0.7 442.46-0.2 440.61 0.3 439.01 0.3ZM439.71-2.15L439.71-2.15Q442.26-2.15 444.33-2.95 446.41-3.75 448.11-4.6L448.11-4.6 448.11-23.25Q446.06-23.85 444.26-24.25 442.46-24.65 440.16-24.65L440.16-24.65Q437.36-24.65 435.63-23.6 433.91-22.55 433.11-20.08 432.31-17.6 432.31-13.25L432.31-13.25Q432.31-9.35 433.06-6.88 433.81-4.4 435.43-3.28 437.06-2.15 439.71-2.15ZM464.06 0.3L464.06 0.3Q461.16 0.3 459.23-1.43 457.31-3.15 457.31-6.35L457.31-6.35 457.31-8.15Q457.31-11.3 459.38-13.25 461.46-15.2 465.51-15.2L465.51-15.2 475.26-15.2 475.26-18.9Q475.26-20.7 474.63-22 474.01-23.3 472.46-24 470.91-24.7 468.01-24.7L468.01-24.7 459.66-24.7 459.66-26.45Q461.31-26.65 463.58-26.85 465.86-27.05 468.81-27.1L468.81-27.1Q472.06-27.15 474.13-26.28 476.21-25.4 477.18-23.6 478.16-21.8 478.16-19.05L478.16-19.05 478.16 0 475.96 0 475.36-3.1Q475.21-3 474.13-2.48 473.06-1.95 471.36-1.3 469.66-0.65 467.76-0.18 465.86 0.3 464.06 0.3ZM465.06-2L465.06-2Q466.06-1.95 467.38-2.23 468.71-2.5 470.06-2.88 471.41-3.25 472.58-3.63 473.76-4 474.48-4.3 475.21-4.6 475.26-4.6L475.26-4.6 475.26-13.65 465.96-13.3Q462.86-13.2 461.53-11.75 460.21-10.3 460.21-8.1L460.21-8.1 460.21-6.85Q460.21-5.05 460.96-3.98 461.71-2.9 462.83-2.45 463.96-2 465.06-2ZM497.9 0L494.55 0Q492.15 0 490.53-0.85 488.9-1.7 488.1-3.55 487.3-5.4 487.3-8.35L487.3-8.35 487.45-24.2 483.2-24.2 483.2-26.1 487.45-26.65 488-34.1 490.2-34.1 490.2-26.65 498.3-26.65 498.3-24.2 490.2-24.2 490.2-8.35Q490.2-6.45 490.63-5.28 491.05-4.1 491.73-3.5 492.4-2.9 493.18-2.68 493.95-2.45 494.65-2.4L494.65-2.4 497.9-2.1 497.9 0ZM509.25 0.3L509.25 0.3Q506.35 0.3 504.43-1.43 502.5-3.15 502.5-6.35L502.5-6.35 502.5-8.15Q502.5-11.3 504.58-13.25 506.65-15.2 510.7-15.2L510.7-15.2 520.45-15.2 520.45-18.9Q520.45-20.7 519.83-22 519.2-23.3 517.65-24 516.1-24.7 513.2-24.7L513.2-24.7 504.85-24.7 504.85-26.45Q506.5-26.65 508.78-26.85 511.05-27.05 514-27.1L514-27.1Q517.25-27.15 519.33-26.28 521.4-25.4 522.38-23.6 523.35-21.8 523.35-19.05L523.35-19.05 523.35 0 521.15 0 520.55-3.1Q520.4-3 519.33-2.48 518.25-1.95 516.55-1.3 514.85-0.65 512.95-0.18 511.05 0.3 509.25 0.3ZM510.25-2L510.25-2Q511.25-1.95 512.58-2.23 513.9-2.5 515.25-2.88 516.6-3.25 517.78-3.63 518.95-4 519.68-4.3 520.4-4.6 520.45-4.6L520.45-4.6 520.45-13.65 511.15-13.3Q508.05-13.2 506.73-11.75 505.4-10.3 505.4-8.1L505.4-8.1 505.4-6.85Q505.4-5.05 506.15-3.98 506.9-2.9 508.03-2.45 509.15-2 510.25-2ZM552.45 0.2L552.45 0.2Q551.2 0.2 549.92-0.03 548.65-0.25 547.52-0.93 546.4-1.6 545.7-2.98 545-4.35 545-6.65L545-6.65 545-29.65Q545-31.7 545.6-33.05 546.2-34.4 547.2-35.2 548.2-36 549.42-36.35 550.65-36.7 551.9-36.7L551.9-36.7Q554.75-36.65 557.32-36.6 559.9-36.55 562.32-36.48 564.75-36.4 567.05-36.3L567.05-36.3 567.05-34.05 552.5-34.05Q550.4-34.05 549.15-32.93 547.9-31.8 547.9-29.3L547.9-29.3 547.9-19.55 564.95-19.3 564.95-17.15 547.9-16.9 547.9-7.2Q547.9-5.15 548.62-4.15 549.35-3.15 550.5-2.83 551.65-2.5 552.85-2.5L552.85-2.5 567.05-2.5 567.05-0.25Q564.75-0.15 562.27-0.08 559.8 0 557.35 0.08 554.9 0.15 552.45 0.2ZM582.84 0.3L582.84 0.3Q579.49 0.3 577.37-1.15 575.24-2.6 574.24-5.6 573.24-8.6 573.24-13.15L573.24-13.15Q573.24-18.1 574.27-21.15 575.29-24.2 577.49-25.58 579.69-26.95 583.34-26.95L583.34-26.95Q585.69-26.95 587.97-26.43 590.24-25.9 591.94-25.3L591.94-25.3 591.94-38.15 594.84-38.15 594.84 0 592.54 0 591.94-2.75Q591.24-2.1 589.69-1.4 588.14-0.7 586.29-0.2 584.44 0.3 582.84 0.3ZM583.54-2.15L583.54-2.15Q586.09-2.15 588.17-2.95 590.24-3.75 591.94-4.6L591.94-4.6 591.94-23.25Q589.89-23.85 588.09-24.25 586.29-24.65 583.99-24.65L583.99-24.65Q581.19-24.65 579.47-23.6 577.74-22.55 576.94-20.08 576.14-17.6 576.14-13.25L576.14-13.25Q576.14-9.35 576.89-6.88 577.64-4.4 579.27-3.28 580.89-2.15 583.54-2.15ZM605.29-31.65L603.34-31.65Q602.59-31.65 602.59-32.4L602.59-32.4 602.59-35.95Q602.59-36.7 603.34-36.7L603.34-36.7 605.29-36.7Q605.64-36.7 605.79-36.5 605.94-36.3 605.94-35.95L605.94-35.95 605.94-32.4Q605.94-31.65 605.29-31.65L605.29-31.65ZM605.74 0L602.84 0 602.84-26.65 605.74-26.65 605.74 0ZM625.64 0L622.29 0Q619.89 0 618.26-0.85 616.64-1.7 615.84-3.55 615.04-5.4 615.04-8.35L615.04-8.35 615.19-24.2 610.94-24.2 610.94-26.1 615.19-26.65 615.74-34.1 617.94-34.1 617.94-26.65 626.04-26.65 626.04-24.2 617.94-24.2 617.94-8.35Q617.94-6.45 618.36-5.28 618.79-4.1 619.46-3.5 620.14-2.9 620.91-2.68 621.69-2.45 622.39-2.4L622.39-2.4 625.64-2.1 625.64 0ZM642.23 0.3L642.23 0.3Q639.48 0.3 637.36-0.28 635.23-0.85 633.78-2.33 632.33-3.8 631.63-6.48 630.93-9.15 630.93-13.35L630.93-13.35Q630.93-17.6 631.66-20.28 632.38-22.95 633.81-24.4 635.23-25.85 637.36-26.4 639.48-26.95 642.23-26.95L642.23-26.95Q644.98-26.95 647.11-26.4 649.23-25.85 650.68-24.4 652.13-22.95 652.86-20.28 653.58-17.6 653.58-13.35L653.58-13.35Q653.58-9.15 652.86-6.45 652.13-3.75 650.71-2.3 649.28-0.85 647.13-0.28 644.98 0.3 642.23 0.3ZM642.23-2.15L642.23-2.15Q644.23-2.15 645.83-2.53 647.43-2.9 648.48-4.03 649.53-5.15 650.11-7.4 650.68-9.65 650.68-13.35L650.68-13.35Q650.68-17.1 650.11-19.33 649.53-21.55 648.48-22.68 647.43-23.8 645.83-24.18 644.23-24.55 642.23-24.55L642.23-24.55Q640.18-24.55 638.63-24.18 637.08-23.8 636.01-22.68 634.93-21.55 634.38-19.33 633.83-17.1 633.83-13.35L633.83-13.35Q633.83-9.65 634.38-7.4 634.93-5.15 636.01-4.03 637.08-2.9 638.63-2.53 640.18-2.15 642.23-2.15ZM663.68 0L660.78 0 660.78-26.65 662.93-26.65 663.68-21.85Q665.58-24.05 667.91-25.5 670.23-26.95 673.28-26.95L673.28-26.95Q674.03-26.95 674.68-26.88 675.33-26.8 675.88-26.65L675.88-26.65 675.88-23.7Q675.23-23.8 674.53-23.9 673.83-24 673.03-24L673.03-24Q671.08-24 669.56-23.5 668.03-23 666.63-22.03 665.23-21.05 663.68-19.6L663.68-19.6 663.68 0Z" opacity="1" transform="matrix(1,0,0,1,0,0)" fill="#1c4b82" class="undefined-text-1" data-fill-palette-color="secondary" id="text-1"></path></svg></g></svg></g></svg></g></svg></g></svg></g><defs></defs></svg><rect width="395.52" height="171.9958243956582" fill="none" stroke="none" visibility="hidden"></rect></g></svg></g></svg>