
<svg xmlns="http://www.w3.org/2000/svg" version="1.1" xmlns:xlink="http://www.w3.org/1999/xlink" xmlns:svgjs="http://svgjs.dev/svgjs" width="2000" height="555" viewBox="0 0 2000 555"><g transform="matrix(1,0,0,1,-1.2121212121212466,-0.7255025253572285)"><svg viewBox="0 0 396 110" data-background-color="#ffffff" preserveAspectRatio="xMidYMid meet" height="555" width="2000" xmlns="http://www.w3.org/2000/svg" xmlns:xlink="http://www.w3.org/1999/xlink"><g id="tight-bounds" transform="matrix(1,0,0,1,0.2400000000000091,0.14379329331404733)"><svg viewBox="0 0 395.52 109.71241341337188" height="109.71241341337188" width="395.52"><g><svg viewBox="0 0 395.52000000000004 109.71241341337189" height="109.71241341337188" width="395.52"><g><svg viewBox="0 0 395.52000000000004 109.71241341337189" height="109.71241341337189" width="395.52000000000004"><g id="textblocktransform"><svg viewBox="0 0 395.52000000000004 109.71241341337189" height="109.71241341337189" width="395.52000000000004" id="textblock"><g><svg viewBox="0 0 395.52000000000004 88.57979358642065" height="88.57979358642065" width="395.52000000000004"><g transform="matrix(1,0,0,1,0,0)"><svg width="395.52000000000004" viewBox="-0.36166730523109436 -32.37675094604492 195.7189178466797 43.8327522277832" height="88.57979358642065" data-palette-color="#1976d2"><path d="M16.769-22.478c1.452 1.293 3.153 2.986 5.103 5.081 1.944 2.096 3.289 3.481 4.036 4.154 0.748 0.68 1.31 0.988 1.685 0.926 0.368-0.061 0.665-0.327 0.891-0.797 0.218-0.476 1.02-2.278 2.405-5.408 1.379-3.129 2.543-5.532 3.494-7.211 0.958-1.673 1.79-2.585 2.495-2.736 0.711-0.152 1.636-0.323 2.774-0.512 1.131-0.188 2.465-0.376 4.001-0.565 1.537-0.188 2.619 0.041 3.247 0.687 0.621 0.647 1.092 1.626 1.411 2.938v0c0.764 3.374 1.614 7.875 2.551 13.505 0.936 5.629 1.527 10.093 1.771 13.39v0c0.063 0.787-0.113 1.533-0.53 2.238-0.41 0.704-1.072 1.131-1.986 1.283v0c-1.974 0.362-4.168 0.744-6.581 1.146-2.42 0.403-4.352 0.673-5.796 0.812v0c-0.525 0.054-1.023-0.073-1.492-0.381-0.462-0.302-0.761-0.759-0.897-1.371v0l-1.632-7.98c-0.163-0.777-0.407-1.189-0.733-1.237-0.324-0.041-0.572 0.22-0.742 0.782v0c-1.216 3.331-2.79 7.094-4.721 11.288v0c-0.462 1.043-1.196 1.649-2.202 1.816-1.006 0.167-1.913-0.165-2.721-0.997v0c-1.401-1.436-3.904-4.554-7.507-9.355v0c-0.219-0.301-0.439-0.468-0.66-0.498-0.22-0.024-0.391 0.089-0.512 0.338-0.126 0.258-0.146 0.646-0.059 1.166v0l1.089 8.071c0.07 0.624-0.124 1.163-0.582 1.617-0.457 0.461-1.022 0.765-1.694 0.91v0l-4.824 0.803c-0.88 0.113-1.635-0.079-2.265-0.576-0.637-0.496-1.066-1.107-1.288-1.834v0c-0.737-2.844-1.611-7.308-2.623-13.391-1.013-6.09-1.675-10.575-1.985-13.457v0c-0.134-1.377-0.004-2.483 0.39-3.319 0.396-0.83 1.261-1.355 2.596-1.577v0c6.813-1.133 10.504-1.697 11.073-1.69 0.568 0 1.574 0.647 3.02 1.941zM80.712 2.385v0c-2.193 0.315-5.34 0.579-9.442 0.792-4.108 0.214-6.914 0.3-8.418 0.259-1.497-0.035-2.636-0.246-3.417-0.633-0.775-0.387-1.219-1.038-1.334-1.953v0c-0.385-3.538-0.696-7.584-0.933-12.138-0.237-4.547-0.422-9.371-0.554-14.471v0c-0.098-3.159 1.276-4.91 4.122-5.252v0c1.997-0.238 5.066-0.464 9.207-0.68 4.141-0.216 7.386-0.328 9.736-0.337 2.356-0.003 4.652 0.422 6.886 1.273 2.241 0.858 4.058 2.025 5.449 3.501v0c2.889 3.04 4.443 6.664 4.662 10.872v0c0.231 4.434-0.991 8.466-3.665 12.097v0c-1.291 1.75-3 3.224-5.126 4.423-2.127 1.192-4.518 1.941-7.173 2.247zM77.257-21.247v0l0.621 11.923c0.014 0.26 0.123 0.501 0.329 0.724 0.212 0.216 0.48 0.315 0.806 0.299v0c2.104-0.11 3.684-0.916 4.741-2.42 1.063-1.504 1.543-3.241 1.44-5.212-0.103-1.971-0.712-3.661-1.826-5.072-1.108-1.404-2.534-2.061-4.279-1.97v0c-0.426 0.022-0.751 0.056-0.976 0.101v0c-0.617 0.192-0.903 0.735-0.856 1.627zM120.074-28.99c1.128 1.583 2.411 3.612 3.847 6.088 1.43 2.475 2.434 4.124 3.013 4.946 0.579 0.829 1.058 1.255 1.437 1.278 0.373 0.022 0.721-0.171 1.046-0.58 0.318-0.415 1.501-1.995 3.547-4.738 2.039-2.744 3.709-4.829 5.008-6.255 1.306-1.419 2.32-2.123 3.04-2.114 0.727 0.01 1.667 0.049 2.818 0.116 1.145 0.068 2.487 0.181 4.027 0.339 1.54 0.158 2.544 0.621 3.013 1.391 0.462 0.769 0.703 1.828 0.724 3.178v0c-0.004 3.459-0.175 8.037-0.513 13.734-0.337 5.697-0.753 10.18-1.247 13.449v0c-0.113 0.781-0.451 1.469-1.013 2.064-0.556 0.595-1.297 0.865-2.222 0.81v0c-2.005-0.085-4.229-0.2-6.671-0.345-2.449-0.145-4.393-0.31-5.831-0.495v0c-0.524-0.064-0.981-0.298-1.371-0.702-0.384-0.397-0.574-0.909-0.57-1.537v0l0.181-8.143c0.014-0.794-0.133-1.25-0.44-1.369-0.307-0.112-0.606 0.088-0.897 0.598v0c-1.926 2.978-4.296 6.297-7.111 9.958v0c-0.682 0.915-1.532 1.342-2.55 1.281-1.018-0.06-1.829-0.586-2.431-1.576v0c-1.047-1.712-2.795-5.308-5.241-10.789v0c-0.147-0.343-0.325-0.553-0.534-0.633-0.209-0.072-0.401 0-0.574 0.217-0.18 0.223-0.286 0.597-0.317 1.123v0l-0.73 8.111c-0.07 0.624-0.379 1.106-0.928 1.448-0.548 0.348-1.166 0.519-1.853 0.511v0l-4.881-0.289c-0.883-0.086-1.577-0.441-2.081-1.065-0.511-0.625-0.794-1.316-0.849-2.073v0c-0.087-2.937 0.052-7.483 0.417-13.64 0.365-6.163 0.716-10.683 1.053-13.561v0c0.175-1.372 0.547-2.422 1.118-3.149 0.57-0.721 1.531-1.041 2.882-0.962v0c6.895 0.408 10.618 0.679 11.171 0.812 0.554 0.126 1.391 0.981 2.513 2.563zM158.151 6.281c-0.907-0.155-1.625-0.585-2.153-1.291-0.528-0.712-0.766-1.771-0.716-3.175 0.058-1.41 0.675-5.562 1.85-12.456 1.175-6.887 2.057-11.366 2.647-13.437v0c0.72-2.677 2.108-3.874 4.164-3.591v0c2.351 0.333 12.037 1.952 29.057 4.856v0c1.912 0.326 2.661 1.705 2.246 4.136v0c-0.326 1.912-1.331 2.725-3.013 2.438v0l-10.705-1.826c-0.683-0.117-1.264 0.018-1.742 0.403-0.485 0.384-0.788 0.934-0.911 1.65v0l-0.597 3.5c-0.166 0.973 0.188 1.533 1.062 1.682v0l8.852 1.51c0.519 0.089 0.908 0.206 1.168 0.352 0.259 0.146 0.464 0.471 0.614 0.977 0.143 0.511 0.123 1.303-0.06 2.374-0.183 1.071-0.488 1.753-0.916 2.045-0.435 0.291-1.073 0.365-1.915 0.221v0l-7.935-1.354c-0.808-0.138-1.402-0.029-1.78 0.325-0.377 0.348-0.638 0.946-0.783 1.794v0l-0.407 2.386c-0.238 1.393 0.307 2.203 1.635 2.429v0l12.115 2.067c0.585 0.1 1.075 0.359 1.47 0.778 0.396 0.413 0.496 1.194 0.3 2.344-0.197 1.157-0.649 2.141-1.356 2.954-0.707 0.813-1.431 1.156-2.174 1.029v0z" opacity="1" transform="matrix(1,0,0,1,0,0)" fill="#1976d2" class="undefined-text-0" data-fill-palette-color="primary" id="text-0"></path></svg></g></svg></g><g transform="matrix(1,0,0,1,69.21600000000001,95.85487995337611)"><svg viewBox="0 0 257.088 13.857533459995778" height="13.857533459995778" width="257.088"><g transform="matrix(1,0,0,1,0,0)"><svg width="257.088" viewBox="2 -37.79999923706055 710.47998046875 38.29999923706055" height="13.857533459995778" data-palette-color="#047926"><path d="M3-15.05L2-20.55 3.55-23.6 11-23.6 11-21.45 11.45-21.15Q12-21.65 12.98-22.33 13.95-23 15.35-23.55 16.75-24.1 18.5-24.1L18.5-24.1Q23.7-24.1 25.95-20.65L25.95-20.65Q26.85-21.9 28.68-23.03 30.5-24.15 33.75-24.15L33.75-24.15Q38.25-24.15 40.5-21.6 42.75-19.05 42.75-14.45L42.75-14.45 42.75-8.05 43.8-3.05 42.75 0 33.75 0 33.75-13.15Q33.75-15.05 32.93-16.07 32.1-17.1 30.35-17.1L30.35-17.1Q29.2-17.1 28.35-16.25 27.5-15.4 27.5-14.1L27.5-14.1 27.5 0 18.5 0 18.5-13.1Q18.5-15 17.68-16.03 16.85-17.05 15.1-17.05L15.1-17.05 12-16.1 12 0 3 0 3-15.05ZM59.85 0.5L59.85 0.5Q53.75 0.5 50.4-2.4 47.05-5.3 47.05-11.8L47.05-11.8Q47.05-18.35 50.4-21.23 53.75-24.1 59.85-24.1L59.85-24.1Q66.1-24.1 69.32-21.23 72.55-18.35 72.55-11.8L72.55-11.8Q72.55-5.3 69.32-2.4 66.1 0.5 59.85 0.5ZM59.85-6L59.85-6Q61.9-6 62.7-7.53 63.5-9.05 63.5-11.8L63.5-11.8Q63.5-14.6 62.7-16.1 61.9-17.6 59.85-17.6L59.85-17.6Q57.75-17.6 56.92-16.1 56.1-14.6 56.1-11.8L56.1-11.8Q56.1-9.05 56.92-7.53 57.75-6 59.85-6ZM84.55 0.5L84.55 0.5Q82.2 0.5 80.02-0.7 77.85-1.9 76.45-4.5 75.05-7.1 75.05-11.3L75.05-11.3Q75.05-15.95 76.42-18.75 77.8-21.55 80-22.83 82.2-24.1 84.55-24.1L84.55-24.1Q88.1-24.1 89.57-23.5 91.05-22.9 91.05-22.9L91.05-22.9 90.55-32.35 91.05-35.35 100.1-35.35 100.1-8 101.1-3 100.1 0.05 91.55 0.05 91.55-2.4 91.05-2.65Q91.05-2.65 90.3-1.88 89.55-1.1 88.1-0.3 86.65 0.5 84.55 0.5ZM88.3-6.55L88.3-6.55 91.05-7.25 91.05-14.55Q91.05-15.7 90.3-16.38 89.55-17.05 88.3-17.05L88.3-17.05Q86.45-17.05 85.5-15.83 84.55-14.6 84.55-11.8L84.55-11.8Q84.55-9.05 85.65-7.8 86.75-6.55 88.3-6.55ZM117.59 0.5L117.59 0.5Q113.74 0.5 110.74-0.65 107.74-1.8 106.04-4.5 104.34-7.2 104.34-11.8L104.34-11.8Q104.34-15.1 105.47-17.45 106.59-19.8 108.49-21.28 110.39-22.75 112.74-23.43 115.09-24.1 117.59-24.1L117.59-24.1Q121.89-24.1 124.22-23.25 126.54-22.4 127.29-21.9L127.29-21.9 129.79-13.95 128.79-10.85 113.29-10.85Q113.64-9 115.14-7.75 116.64-6.5 120.09-6.5L120.09-6.5Q122.79-6.5 124.74-7.1 126.69-7.7 127.79-8.15L127.79-8.15 127.79-1.45Q126.29-0.65 123.47-0.08 120.64 0.5 117.59 0.5ZM113.34-14.05L113.34-14.05 120.24-15.05 119.79-17.2Q119.44-17.4 118.77-17.5 118.09-17.6 117.59-17.6L117.59-17.6Q116.19-17.6 115.27-17 114.34-16.4 113.87-15.58 113.39-14.75 113.34-14.05ZM143.04 0L134.04 0 133.99-27.4 132.99-32.4 134.04-35.4 143.04-35.4 143.04 0ZM168.79 0.5L168.79 0.5Q166.44 0.5 164.26-0.7 162.09-1.9 160.69-4.5 159.29-7.1 159.29-11.3L159.29-11.3Q159.29-15.95 160.66-18.75 162.04-21.55 164.24-22.83 166.44-24.1 168.79-24.1L168.79-24.1Q172.34-24.1 173.81-23.5 175.29-22.9 175.29-22.9L175.29-22.9 174.79-32.35 175.29-35.35 184.34-35.35 184.34-8 185.34-3 184.34 0.05 175.79 0.05 175.79-2.4 175.29-2.65Q175.29-2.65 174.54-1.88 173.79-1.1 172.34-0.3 170.89 0.5 168.79 0.5ZM172.54-6.55L172.54-6.55 175.29-7.25 175.29-14.55Q175.29-15.7 174.54-16.38 173.79-17.05 172.54-17.05L172.54-17.05Q170.69-17.05 169.74-15.83 168.79-14.6 168.79-11.8L168.79-11.8Q168.79-9.05 169.89-7.8 170.99-6.55 172.54-6.55ZM199.28 0L190.38 0 190.38-15.65 189.33-20.65 190.38-23.65 197.18-23.65 198.18-22.5Q198.18-22.5 198.88-22.93 199.58-23.35 200.86-23.75 202.13-24.15 203.83-24.15L203.83-24.15Q204.83-24.15 205.83-24 206.83-23.85 207.38-23.6L207.38-23.6 210.63-20.85 207.38-14.45 200.78-17.2 199.28-16.7 199.28 0ZM224.48-31.45L218.13-25.05 211.78-31.45 218.13-37.8 224.48-31.45ZM222.63 0L213.63 0 213.63-16.55 212.58-20.55 213.58-23.6 222.63-23.6 222.63 0ZM243.53 0L233.03 0 226.73-17.1 225.73-23.6 235.23-23.6 237.98-8 238.98-8 241.78-23.6 251.23-23.6 250.23-17.1 243.53 0ZM265.23 0.5L265.23 0.5Q261.38 0.5 258.38-0.65 255.38-1.8 253.68-4.5 251.98-7.2 251.98-11.8L251.98-11.8Q251.98-15.1 253.1-17.45 254.23-19.8 256.13-21.28 258.03-22.75 260.38-23.43 262.73-24.1 265.23-24.1L265.23-24.1Q269.53-24.1 271.85-23.25 274.18-22.4 274.93-21.9L274.93-21.9 277.43-13.95 276.43-10.85 260.93-10.85Q261.28-9 262.78-7.75 264.28-6.5 267.73-6.5L267.73-6.5Q270.43-6.5 272.38-7.1 274.33-7.7 275.43-8.15L275.43-8.15 275.43-1.45Q273.93-0.65 271.1-0.08 268.28 0.5 265.23 0.5ZM260.98-14.05L260.98-14.05 267.88-15.05 267.43-17.2Q267.08-17.4 266.4-17.5 265.73-17.6 265.23-17.6L265.23-17.6Q263.83-17.6 262.9-17 261.98-16.4 261.5-15.58 261.03-14.75 260.98-14.05ZM290.62 0L281.62 0 281.62-15.05 280.62-20.55 282.17-23.6 289.62-23.6 289.62-21.45 290.07-21.15Q290.62-21.65 291.6-22.33 292.57-23 293.97-23.55 295.37-24.1 297.12-24.1L297.12-24.1Q301.62-24.1 303.87-21.55 306.12-19 306.12-14.4L306.12-14.4 306.12-8.05 307.17-3.05 306.12 0 297.12 0 297.12-13.1Q297.12-15 296.3-16.03 295.47-17.05 293.72-17.05L293.72-17.05 290.62-16.1 290.62 0ZM323.97-15.05L322.97-20.55 324.52-23.6 331.97-23.6 331.97-21.45 332.42-21.15Q332.97-21.65 333.94-22.33 334.92-23 336.32-23.55 337.72-24.1 339.47-24.1L339.47-24.1Q344.67-24.1 346.92-20.65L346.92-20.65Q347.82-21.9 349.64-23.03 351.47-24.15 354.72-24.15L354.72-24.15Q359.22-24.15 361.47-21.6 363.72-19.05 363.72-14.45L363.72-14.45 363.72-8.05 364.77-3.05 363.72 0 354.72 0 354.72-13.15Q354.72-15.05 353.89-16.07 353.07-17.1 351.32-17.1L351.32-17.1Q350.17-17.1 349.32-16.25 348.47-15.4 348.47-14.1L348.47-14.1 348.47 0 339.47 0 339.47-13.1Q339.47-15 338.64-16.03 337.82-17.05 336.07-17.05L336.07-17.05 332.97-16.1 332.97 0 323.97 0 323.97-15.05ZM381.27 0.5L381.27 0.5Q377.42 0.5 374.42-0.65 371.42-1.8 369.72-4.5 368.02-7.2 368.02-11.8L368.02-11.8Q368.02-15.1 369.14-17.45 370.27-19.8 372.17-21.28 374.07-22.75 376.42-23.43 378.77-24.1 381.27-24.1L381.27-24.1Q385.57-24.1 387.89-23.25 390.22-22.4 390.97-21.9L390.97-21.9 393.47-13.95 392.47-10.85 376.97-10.85Q377.32-9 378.82-7.75 380.32-6.5 383.77-6.5L383.77-6.5Q386.47-6.5 388.42-7.1 390.37-7.7 391.47-8.15L391.47-8.15 391.47-1.45Q389.97-0.65 387.14-0.08 384.32 0.5 381.27 0.5ZM377.02-14.05L377.02-14.05 383.92-15.05 383.47-17.2Q383.12-17.4 382.44-17.5 381.77-17.6 381.27-17.6L381.27-17.6Q379.87-17.6 378.94-17 378.02-16.4 377.54-15.58 377.07-14.75 377.02-14.05ZM406.31 0.5L406.31 0.5Q402.91 0.5 400.86-1.5 398.81-3.5 398.81-6.55L398.81-6.55 398.81-17.45 395.16-17.45 395.16-22.2 398.31-24.65 401.86-30.85 407.76-30.85 407.76-23.6 414.76-23.6 414.76-17.1 407.76-17.1 407.76-6.4 414.76-6.45 414.76-1Q414.76-1 413.59-0.63 412.41-0.25 410.51 0.13 408.61 0.5 406.31 0.5ZM425.76 0.5L425.76 0.5Q423.61 0.5 421.79-0.13 419.96-0.75 418.86-2.3 417.76-3.85 417.76-6.6L417.76-6.6Q417.76-9.1 419.01-10.75 420.26-12.4 422.41-13.2 424.56-14 427.26-14L427.26-14Q429.86-14 431.16-13.43 432.46-12.85 433.41-12.25L433.41-12.25 433.76-12.55Q433.76-14.05 433.51-15.05 433.26-16.05 432.36-16.57 431.46-17.1 429.56-17.1L429.56-17.1Q427.71-17.1 425.64-16.78 423.56-16.45 421.84-15.98 420.11-15.5 419.26-15.05L419.26-15.05 419.26-22.55Q420.81-23.1 423.69-23.58 426.56-24.05 430.76-24.05L430.76-24.05Q435.26-24.05 437.89-22.93 440.51-21.8 441.66-19.68 442.81-17.55 442.81-14.6L442.81-14.6 442.81-7.95 443.81-2.9 442.81 0.05 434.26 0.05 434.26-2.4 433.76-2.65Q433.36-2.25 432.36-1.5 431.36-0.75 429.71-0.13 428.06 0.5 425.76 0.5ZM430.01-6.05L430.01-6.05Q431.36-6.05 432.34-6.3 433.31-6.55 433.76-6.75L433.76-6.75 433.76-7.7Q433.76-8.35 432.84-8.95 431.91-9.55 429.96-9.55L429.96-9.55Q427.26-9.55 427.26-7.65L427.26-7.65Q427.26-6.85 427.86-6.45 428.46-6.05 430.01-6.05ZM456.56 0.5L456.56 0.5Q454.21 0.5 452.03-0.7 449.86-1.9 448.46-4.5 447.06-7.1 447.06-11.3L447.06-11.3Q447.06-15.95 448.43-18.75 449.81-21.55 452.01-22.83 454.21-24.1 456.56-24.1L456.56-24.1Q460.11-24.1 461.58-23.5 463.06-22.9 463.06-22.9L463.06-22.9 462.56-32.35 463.06-35.35 472.11-35.35 472.11-8 473.11-3 472.11 0.05 463.56 0.05 463.56-2.4 463.06-2.65Q463.06-2.65 462.31-1.88 461.56-1.1 460.11-0.3 458.66 0.5 456.56 0.5ZM460.31-6.55L460.31-6.55 463.06-7.25 463.06-14.55Q463.06-15.7 462.31-16.38 461.56-17.05 460.31-17.05L460.31-17.05Q458.46-17.05 457.51-15.83 456.56-14.6 456.56-11.8L456.56-11.8Q456.56-9.05 457.66-7.8 458.76-6.55 460.31-6.55ZM484.61 0.5L484.61 0.5Q482.46 0.5 480.63-0.13 478.81-0.75 477.71-2.3 476.61-3.85 476.61-6.6L476.61-6.6Q476.61-9.1 477.86-10.75 479.11-12.4 481.26-13.2 483.41-14 486.11-14L486.11-14Q488.71-14 490.01-13.43 491.31-12.85 492.26-12.25L492.26-12.25 492.61-12.55Q492.61-14.05 492.36-15.05 492.11-16.05 491.21-16.57 490.31-17.1 488.41-17.1L488.41-17.1Q486.56-17.1 484.48-16.78 482.41-16.45 480.68-15.98 478.96-15.5 478.11-15.05L478.11-15.05 478.11-22.55Q479.66-23.1 482.53-23.58 485.41-24.05 489.61-24.05L489.61-24.05Q494.11-24.05 496.73-22.93 499.36-21.8 500.51-19.68 501.66-17.55 501.66-14.6L501.66-14.6 501.66-7.95 502.66-2.9 501.66 0.05 493.11 0.05 493.11-2.4 492.61-2.65Q492.21-2.25 491.21-1.5 490.21-0.75 488.56-0.13 486.91 0.5 484.61 0.5ZM488.86-6.05L488.86-6.05Q490.21-6.05 491.18-6.3 492.16-6.55 492.61-6.75L492.61-6.75 492.61-7.7Q492.61-8.35 491.68-8.95 490.76-9.55 488.81-9.55L488.81-9.55Q486.11-9.55 486.11-7.65L486.11-7.65Q486.11-6.85 486.71-6.45 487.31-6.05 488.86-6.05ZM516.3 0.5L516.3 0.5Q512.9 0.5 510.85-1.5 508.8-3.5 508.8-6.55L508.8-6.55 508.8-17.45 505.15-17.45 505.15-22.2 508.3-24.65 511.85-30.85 517.75-30.85 517.75-23.6 524.75-23.6 524.75-17.1 517.75-17.1 517.75-6.4 524.75-6.45 524.75-1Q524.75-1 523.58-0.63 522.4-0.25 520.5 0.13 518.6 0.5 516.3 0.5ZM535.75 0.5L535.75 0.5Q533.6 0.5 531.78-0.13 529.95-0.75 528.85-2.3 527.75-3.85 527.75-6.6L527.75-6.6Q527.75-9.1 529-10.75 530.25-12.4 532.4-13.2 534.55-14 537.25-14L537.25-14Q539.85-14 541.15-13.43 542.45-12.85 543.4-12.25L543.4-12.25 543.75-12.55Q543.75-14.05 543.5-15.05 543.25-16.05 542.35-16.57 541.45-17.1 539.55-17.1L539.55-17.1Q537.7-17.1 535.63-16.78 533.55-16.45 531.83-15.98 530.1-15.5 529.25-15.05L529.25-15.05 529.25-22.55Q530.8-23.1 533.68-23.58 536.55-24.05 540.75-24.05L540.75-24.05Q545.25-24.05 547.88-22.93 550.5-21.8 551.65-19.68 552.8-17.55 552.8-14.6L552.8-14.6 552.8-7.95 553.8-2.9 552.8 0.05 544.25 0.05 544.25-2.4 543.75-2.65Q543.35-2.25 542.35-1.5 541.35-0.75 539.7-0.13 538.05 0.5 535.75 0.5ZM540-6.05L540-6.05Q541.35-6.05 542.33-6.3 543.3-6.55 543.75-6.75L543.75-6.75 543.75-7.7Q543.75-8.35 542.83-8.95 541.9-9.55 539.95-9.55L539.95-9.55Q537.25-9.55 537.25-7.65L537.25-7.65Q537.25-6.85 537.85-6.45 538.45-6.05 540-6.05ZM582.29 0.5L582.29 0.5Q578.44 0.5 575.44-0.65 572.44-1.8 570.75-4.5 569.04-7.2 569.04-11.8L569.04-11.8Q569.04-15.1 570.17-17.45 571.29-19.8 573.19-21.28 575.09-22.75 577.44-23.43 579.79-24.1 582.29-24.1L582.29-24.1Q586.59-24.1 588.92-23.25 591.25-22.4 592-21.9L592-21.9 594.5-13.95 593.5-10.85 578-10.85Q578.34-9 579.84-7.75 581.34-6.5 584.79-6.5L584.79-6.5Q587.5-6.5 589.44-7.1 591.39-7.7 592.5-8.15L592.5-8.15 592.5-1.45Q591-0.65 588.17-0.08 585.34 0.5 582.29 0.5ZM578.04-14.05L578.04-14.05 584.94-15.05 584.5-17.2Q584.14-17.4 583.47-17.5 582.79-17.6 582.29-17.6L582.29-17.6Q580.89-17.6 579.97-17 579.04-16.4 578.57-15.58 578.09-14.75 578.04-14.05ZM606.44 0.5L606.44 0.5Q604.09 0.5 601.92-0.7 599.74-1.9 598.34-4.5 596.94-7.1 596.94-11.3L596.94-11.3Q596.94-15.95 598.32-18.75 599.69-21.55 601.89-22.83 604.09-24.1 606.44-24.1L606.44-24.1Q609.99-24.1 611.47-23.5 612.94-22.9 612.94-22.9L612.94-22.9 612.44-32.35 612.94-35.35 621.99-35.35 621.99-8 622.99-3 621.99 0.05 613.44 0.05 613.44-2.4 612.94-2.65Q612.94-2.65 612.19-1.88 611.44-1.1 609.99-0.3 608.54 0.5 606.44 0.5ZM610.19-6.55L610.19-6.55 612.94-7.25 612.94-14.55Q612.94-15.7 612.19-16.38 611.44-17.05 610.19-17.05L610.19-17.05Q608.34-17.05 607.39-15.83 606.44-14.6 606.44-11.8L606.44-11.8Q606.44-9.05 607.54-7.8 608.64-6.55 610.19-6.55ZM638.84-31.45L632.49-25.05 626.14-31.45 632.49-37.8 638.84-31.45ZM636.99 0L627.99 0 627.99-16.55 626.94-20.55 627.94-23.6 636.99-23.6 636.99 0ZM651.24 0.5L651.24 0.5Q647.84 0.5 645.79-1.5 643.74-3.5 643.74-6.55L643.74-6.55 643.74-17.45 640.09-17.45 640.09-22.2 643.24-24.65 646.79-30.85 652.69-30.85 652.69-23.6 659.69-23.6 659.69-17.1 652.69-17.1 652.69-6.4 659.69-6.45 659.69-1Q659.69-1 658.51-0.63 657.34-0.25 655.44 0.13 653.54 0.5 651.24 0.5ZM675.23 0.5L675.23 0.5Q669.13 0.5 665.78-2.4 662.43-5.3 662.43-11.8L662.43-11.8Q662.43-18.35 665.78-21.23 669.13-24.1 675.23-24.1L675.23-24.1Q681.48-24.1 684.71-21.23 687.93-18.35 687.93-11.8L687.93-11.8Q687.93-5.3 684.71-2.4 681.48 0.5 675.23 0.5ZM675.23-6L675.23-6Q677.28-6 678.08-7.53 678.88-9.05 678.88-11.8L678.88-11.8Q678.88-14.6 678.08-16.1 677.28-17.6 675.23-17.6L675.23-17.6Q673.13-17.6 672.31-16.1 671.48-14.6 671.48-11.8L671.48-11.8Q671.48-9.05 672.31-7.53 673.13-6 675.23-6ZM701.13 0L692.23 0 692.23-15.65 691.18-20.65 692.23-23.65 699.03-23.65 700.03-22.5Q700.03-22.5 700.73-22.93 701.43-23.35 702.71-23.75 703.98-24.15 705.68-24.15L705.68-24.15Q706.68-24.15 707.68-24 708.68-23.85 709.23-23.6L709.23-23.6 712.48-20.85 709.23-14.45 702.63-17.2 701.13-16.7 701.13 0Z" opacity="1" transform="matrix(1,0,0,1,0,0)" fill="#047926" class="undefined-text-1" data-fill-palette-color="secondary" id="text-1"></path></svg></g></svg></g></svg></g></svg></g><g></g></svg></g><defs></defs></svg><rect width="395.52" height="109.71241341337188" fill="none" stroke="none" visibility="hidden"></rect></g></svg></g></svg>